<svg width="37" height="37" viewBox="0 0 37 37" fill="none" xmlns="http://www.w3.org/2000/svg">
<path fill-rule="evenodd" clip-rule="evenodd" d="M25.8955 23.0833C25.5304 23.0833 19.6989 19.777 19.146 19.7342L22.2965 27.8127C22.4008 27.9946 27.5959 33.3338 27.8463 33.505L33.4066 28.7222L35.6286 23.7146C35.7225 23.4899 35.8059 23.3508 35.8894 23.1582C36.0459 22.8051 36.2858 22.3343 36.3275 22.0454L36.4736 18.0971C36.4736 17.7119 36.5362 17.6905 36.5466 17.3588C36.557 17.102 36.5466 16.8024 36.5466 16.5349C36.411 16.567 36.4736 16.5563 36.4006 16.6098C36.3901 16.6205 36.3693 16.6312 36.3588 16.6419C36.3484 16.6526 36.3275 16.6633 36.3171 16.674L33.949 19.2206C32.1965 21.168 32.6555 20.7935 30.7568 21.4569C30.2248 21.6388 29.7032 21.8421 29.1294 22.0133C28.587 22.1738 26.1667 23.0833 25.8955 23.0833ZM35.2217 19.8626C35.0131 19.9589 35.1383 19.8733 34.9609 20.0338C34.0116 20.8791 33.8239 21.81 32.2173 22.3557C30.882 22.8051 29.5154 23.2759 28.1906 23.7253C25.3843 24.6883 26.2293 24.6883 24.3203 23.7253L21.6497 22.3771C21.2533 22.2166 21.3159 22.3878 21.1594 22.1952C21.0133 22.0133 21.1176 21.8314 21.368 21.8956C21.5558 21.9384 21.441 21.9384 21.5975 22.0561L23.1415 22.8586C23.7465 23.1689 24.3203 23.4471 24.9462 23.7681C26.052 24.3245 25.6034 24.3459 26.8135 23.95L30.7881 22.5911C31.4245 22.3771 32.2069 22.1631 32.8015 21.9063C33.2501 21.7137 35.0444 19.4774 35.5034 19.2206C35.5869 21.4569 35.5138 21.6816 34.8045 23.2866L34.3768 24.4315C34.1994 24.6241 34.0116 24.3887 34.0742 24.1961C34.0742 24.1854 34.2829 23.8751 34.3559 23.7253C35.1487 21.8742 35.2739 21.9598 35.2217 19.8626Z" fill="#EE972D"/>
<path fill-rule="evenodd" clip-rule="evenodd" d="M0.00407589 31.9793C0.00407589 33.1576 -0.0683126 32.9219 0.397041 33.1361C0.552159 33.2004 0.531477 33.2111 0.634889 33.2647L2.01027 33.9288C2.36187 34.0574 3.6752 33.0183 3.9751 32.8255L7.83236 30.3404C7.791 29.869 5.22638 23.9989 5.0299 23.5598C4.88512 23.217 4.28533 21.5245 4.0268 21.321C4.01646 21.7816 3.86134 22.36 3.80964 22.8849L3.23053 26.9018C3.09609 27.7909 2.99268 27.6731 2.24812 28.7122L0.314312 31.3366C0.159194 31.5401 0.00407589 31.6793 0.00407589 31.9793ZM2.3205 30.8117C2.10334 31.1009 1.95856 31.3044 1.73106 31.6151C1.15195 32.397 1.50355 32.2792 1.14161 32.4292C0.717618 32.2042 0.996831 32.1078 1.23468 31.8507L3.15814 29.2156C4.34738 27.5767 4.08885 28.2623 4.34738 26.1199C4.45079 25.2415 4.25431 25.113 4.53352 25.0487C4.95751 24.9523 4.63693 25.6807 4.59557 26.0021C4.54386 26.4198 4.49216 26.8483 4.45079 27.2661C4.3784 27.8981 4.40943 27.898 4.08885 28.3158L2.3205 30.8117Z" fill="#EE972D"/>
<path fill-rule="evenodd" clip-rule="evenodd" d="M13.7103 2.50941C12.2711 1.06941 12.8864 1.28117 11.2491 1.28117C11.1031 1.28117 10.4044 1.5247 10.6234 1.08C10.7486 0.836469 10.8528 0.984704 11.051 1.01647C12.5944 1.26 12.1564 0.582351 13.168 1.60941C14.4403 2.89059 14.2004 2.41412 14.3881 3.76941C14.4507 4.20353 14.6071 4.29882 14.5237 4.60588H14.2004C14.1691 4.52118 14.1483 3.74823 14.1066 3.45176C14.0231 2.90117 14.044 2.84823 13.7103 2.50941ZM9.21556 2.13882C9.21556 1.56706 10.2271 1.54588 10.2271 2.13882C10.2271 2.91176 9.21556 2.91176 9.21556 2.13882ZM8.41256 26.4812C8.06841 26.3753 8.22484 26.4177 8.13098 26.0577L6.04527 21.1235C5.80541 20.5412 5.33613 19.8953 5.51341 19.2282L7.03598 13.0553C7.12984 12.6953 7.20284 12.3882 7.28627 12.0494C7.3697 11.7212 7.27584 11.0329 7.65127 11.2447C7.90156 11.3824 7.72427 11.52 7.65127 11.6682L6.73356 15.2471C6.39984 16.5812 5.99313 18.0318 5.71156 19.3659C5.60727 19.8318 6.84827 22.3729 7.09856 22.9871C7.35927 23.6012 7.59913 24.1729 7.85984 24.7871C7.99541 25.1047 8.0997 25.3377 8.23527 25.6553C8.52727 26.3012 8.79841 26.2165 8.41256 26.4812ZM25.9534 34.4012L24.1284 34.9729C23.4506 35.2059 21.1146 34.4118 20.2907 34.2C19.7693 34.0624 19.4877 33.6388 18.9663 33.12C18.132 32.2835 17.475 31.6694 16.5886 30.6741C16.2444 30.293 15.7438 29.8165 15.3893 29.4565C15.1911 29.2553 15.0138 29.0541 14.8053 28.8635C14.8053 28.8635 13.9188 28.3447 14.5133 28.2494C14.701 28.2177 14.7218 28.3765 14.8053 28.5035L16.9014 30.653C17.7253 31.4788 18.4866 32.2412 19.3104 33.0671C19.8006 33.5541 19.8527 33.8294 20.7287 34.0518C21.3648 34.2106 21.9906 34.3694 22.6267 34.5494C23.607 34.8141 23.534 34.92 24.4934 34.5918C25.7553 34.1577 25.9951 33.8612 25.9534 34.4012ZM11.562 0H12.7508C12.9281 0.0211765 13.0637 0.0741157 13.168 0.179998L15.0138 2.05412C15.2224 2.29765 15.4936 4.78588 15.5666 5.25176L17.3186 17.6188C17.3916 17.8412 17.5063 18.0424 17.6001 18.2859C17.9651 19.2071 18.2988 20.0541 18.643 20.9753C19.2166 22.5212 20.249 24.8612 20.76 26.333C21.0416 27.1482 21.4274 28.2812 21.9801 28.8424L25.6823 32.6012C27.2048 34.1577 26.965 33.5859 26.965 35.0471L24.118 35.9788C23.6174 36.1906 23.7426 36.1271 23.2107 35.9894C22.6267 35.8306 19.592 35.1212 19.3 34.8777L15.5457 31.1082C15.1911 30.7694 14.6176 30.1129 14.2838 29.8906C14.3673 30.1871 14.628 30.3353 14.7948 30.5577C14.8991 30.6953 14.9408 30.7377 15.066 30.8753L18.424 34.8353C18.0068 34.8353 14.5133 33.5753 14.0961 33.4165C13.3661 33.12 12.6987 33.0882 12.0834 32.5906C11.5307 32.1459 11.051 31.7541 10.5087 31.32C10.2271 31.0977 9.98727 30.8965 9.7057 30.6635C8.60027 29.7529 8.72541 30.06 8.3187 29.1177L7.05684 26.1318C6.76484 25.4435 6.50413 24.8188 6.19127 24.1412C6.02441 23.7812 5.92013 23.4741 5.75327 23.1141C5.48213 22.5318 4.28284 19.9059 4.33498 19.5882L6.45198 10.9906L7.53656 9.22235C7.72427 8.90471 7.89113 8.65059 8.08927 8.31177C8.25613 8.02588 8.52727 7.70824 8.55856 7.39059C8.32913 7.32706 8.23527 7.17883 8.03713 7.04118L4.1577 4.05529C3.22956 3.28235 3.3547 3.71647 3.00013 2.64706C2.8437 2.17059 2.71855 1.8 2.56213 1.32353C2.44741 0.974118 2.19713 0.359998 2.17627 0.0211745H11.5307H11.562V0Z" fill="#EE972D"/>
<path fill-rule="evenodd" clip-rule="evenodd" d="M34.3323 3.26862C34.2262 3.46834 33.9821 3.74164 33.8335 3.93085L32.8465 5.13968C32.7085 5.33941 32.6767 5.81243 32.3265 5.47606C32.2522 5.16071 32.4963 5.20276 32.7404 4.89792L33.7274 3.67857C33.9078 3.45783 34.0882 3.27913 34.2156 3.05839L33.8123 2.41718C33.6849 2.21746 33.7592 2.42769 33.6849 2.17542C33.3135 2.27002 32.8571 3.07941 32.6024 3.36322C31.8064 4.2462 29.5034 7.43121 29.0683 7.62042C28.9622 7.66247 28.9622 7.65196 28.8454 7.69401L24.4198 9.15512C23.9953 9.29177 23.0083 9.6807 22.6262 9.71223C22.6899 9.954 23.4859 11.0682 23.6875 11.3626C23.8573 11.6148 24.7064 12.9288 24.8231 13.0129C25.1097 13.2021 29.1426 13.8748 29.9598 14.064C30.4798 14.1797 30.3631 14.3268 30.7133 15.3675C31.5305 17.7957 31.5411 17.0704 30.8194 18.2687L29.7369 19.9821C29.5353 20.3079 29.2699 20.6338 29.2487 20.8861L30.4161 20.5076C30.777 20.3815 31.2652 20.2133 31.6154 20.0872C32.2628 19.8664 31.9019 20.1082 32.5812 19.4355C32.8677 19.1516 33.1437 18.9204 33.3771 18.6156C33.8229 18.0374 34.8099 17.186 35.3936 16.5868L36.5504 15.3254C36.5398 15.0101 36.4655 14.8945 36.37 14.6212C36.2745 14.3478 36.2426 14.1586 36.1471 13.8853C35.521 12.0038 35.5846 12.4978 35.5846 10.9316L35.8075 5.5181C35.7651 5.17122 35.8606 5.46555 35.5953 5.07662C35.5846 5.05559 35.521 4.96099 35.5104 4.93997C35.4361 4.82434 35.4148 4.81383 35.3299 4.68769C35.2344 4.55104 35.2238 4.50899 35.1283 4.37234C34.8523 4.00443 34.6189 3.56295 34.3323 3.26862ZM34.8311 12.9498C35.0434 13.6436 35.2981 14.3478 35.4679 15.0416C35.2026 15.4411 34.4703 16.1243 34.1094 16.5027C33.6743 16.9652 33.1967 17.3962 32.751 17.8692C32.4326 18.2056 32.2946 18.6891 32.0824 18.3633C31.8913 18.0795 32.146 18.069 32.3159 17.9533L34.6932 15.5567C35.3936 14.8314 35.2663 15.1678 34.4915 12.6975C34.4278 12.4978 33.9715 11.8146 34.4703 11.9092C34.7462 11.9617 34.5552 12.0563 34.8311 12.9498Z" fill="#EE972D"/>
</svg>
